<?xml version="1.0" standalone="no"?>
<!DOCTYPE svg PUBLIC "-//W3C//DTD SVG 1.1//EN" "http://www.w3.org/Graphics/SVG/1.1/DTD/svg11.dtd" >
<svg xmlns="http://www.w3.org/2000/svg">
  <metadata>Created by iconfont</metadata>
  <defs>
  <font id="icon" horiz-adv-x="1024">
    <font-face
      font-family="icon"
      font-weight="400"
      font-stretch="normal"
      units-per-em="1024"
      ascent="896"
      descent="-128"
    />
      <missing-glyph />
      
      <glyph glyph-name="xixianjiantou" unicode="&#59025;" d="M77.076958 394.903328h870.029256v-17.846461H77.076958zM76.888669 392.656147L204.153168 519.919622l12.617366-12.618388L89.508082 380.035712zM205.139635 248.076284L77.875137 375.341806l12.618388 12.617366 127.264499-127.263476z"  horiz-adv-x="1024" />
      
      <glyph glyph-name="arrow_top" unicode="&#58952;" d="M277.549419 575.271605a51.152854 51.152854 0 0 0-34.954451 88.409183L470.821952 878.352265a51.152854 51.152854 0 0 0 70.079411 0l228.312238-214.671477a51.152854 51.152854 0 0 0-35.039705-88.409183H645.33844l-83.038133-652.625164a56.864923 56.864923 0 0 0-112.792044 0l-83.038133 652.625164H277.549419z"  horiz-adv-x="1024" />
      
      <glyph glyph-name="southeast-wind-0" unicode="&#58954;" d="M621.226667 536.917333l-269.653334 68.608 75.434667-268.288zM516.283733 428.762453l13.824 14.17216 447.911254-436.8384-13.824-14.17216z"  horiz-adv-x="1365" />
      
      <glyph glyph-name="shanchu" unicode="&#58894;" d="M970.105263 653.473684 889.263158 653.473684 889.263158-74.105263C889.263158-103.855158 865.145263-128 835.368421-128L188.631579-128C158.854737-128 134.736842-103.855158 134.736842-74.105263L134.736842 653.473684 53.894737 653.473684C39.019789 653.473684 26.947368 665.546105 26.947368 680.421053 26.947368 695.322947 39.019789 707.368421 53.894737 707.368421L970.105263 707.368421C984.980211 707.368421 997.052632 695.322947 997.052632 680.421053 997.052632 665.546105 984.980211 653.473684 970.105263 653.473684ZM188.631579-74.105263 835.368421-74.105263 835.368421 653.473684 188.631579 653.473684 188.631579-74.105263ZM673.684211 60.631579C658.809263 60.631579 646.736842 72.704 646.736842 87.578947L646.736842 464.842105C646.736842 479.717053 658.809263 491.789474 673.684211 491.789474 688.559158 491.789474 700.631579 479.717053 700.631579 464.842105L700.631579 87.578947C700.631579 72.704 688.559158 60.631579 673.684211 60.631579ZM512 60.631579C497.125053 60.631579 485.052632 72.704 485.052632 87.578947L485.052632 464.842105C485.052632 479.717053 497.125053 491.789474 512 491.789474 526.874947 491.789474 538.947368 479.717053 538.947368 464.842105L538.947368 87.578947C538.947368 72.704 526.874947 60.631579 512 60.631579ZM350.315789 60.631579C335.440842 60.631579 323.368421 72.704 323.368421 87.578947L323.368421 464.842105C323.368421 479.717053 335.440842 491.789474 350.315789 491.789474 365.190737 491.789474 377.263158 479.717053 377.263158 464.842105L377.263158 87.578947C377.263158 72.704 365.190737 60.631579 350.315789 60.631579ZM673.684211 842.105263 350.315789 842.105263C305.664 842.105263 269.473684 805.914947 269.473684 761.263158L215.578947 761.263158C215.578947 835.691789 275.914105 896 350.315789 896L673.684211 896C748.085895 896 808.421053 835.691789 808.421053 761.263158L754.526316 761.263158C754.526316 805.914947 718.336 842.105263 673.684211 842.105263Z"  horiz-adv-x="1024" />
      
      <glyph glyph-name="buguizejuxing" unicode="&#58889;" d="M192.073143 687.981714L933.083429 873.325714A73.142857 73.142857 0 0 0 1024 802.377143V-54.857143a73.142857 73.142857 0 0 0-73.142857-73.142857H87.625143a73.142857 73.142857 0 0 0-71.972572 86.235429l122.148572 671.890285a73.142857 73.142857 0 0 0 54.272 57.856z"  horiz-adv-x="1024" />
      
      <glyph glyph-name="yidongbiaoge" unicode="&#58930;" d="M227.555556 327.736889L796.444444 327.111111v-113.777778l227.555556 170.666667-227.555556 170.666667v-113.777778L227.555556 440.32v-112.583111z m568.888888 112.526222L227.555556 440.888889V554.666667L0 384l227.555556-170.666667v113.777778l568.888888 0.568889V440.263111zM455.736889 668.444444L455.111111 99.555556H341.333333l170.666667-227.555556 170.666667 227.555556h-113.777778L568.32 668.444444H455.736889z m112.526222-568.888888L568.888889 668.444444h113.777778L512 896 341.333333 668.444444h113.777778l0.568889-568.888888h112.583111z"  horiz-adv-x="1024" />
      
      <glyph glyph-name="jiantou" unicode="&#58902;" d="M1010.80577 440.469708a29.72694 29.72694 0 0 0 0-42.037895L758.668226 146.214425a29.714963 29.714963 0 0 0-42.017934 42.027914l252.137544 252.227369a29.720951 29.720951 0 0 0 42.017934 0zM758.668226 692.687096l252.137544-252.217388a29.717957 29.717957 0 0 0-42.017934-42.037895l-252.137544 252.207407a29.721949 29.721949 0 0 0 42.017934 42.047876zM27.945419 448.79345h955.693411a20.460039 20.460039 0 0 0 20.460039-20.460039v-18.254347a20.460039 20.460039 0 0 0-20.460039-20.460039H27.945419A20.460039 20.460039 0 0 0 7.48538 410.079064v18.254347a20.460039 20.460039 0 0 0 20.460039 20.460039z"  horiz-adv-x="1024" />
      
      <glyph glyph-name="shupaiwenzi" unicode="&#59489;" d="M161.298286 697.929143c16.713143 0 30.555429-12.16 32.932571-27.977143l0.365714-4.864-0.036571-498.194286 57.453714 51.510857c12.251429 10.971429 30.537143 11.282286 43.081143 1.462858l3.949714-3.657143c11.154286-12.068571 11.465143-30.08 1.499429-42.459429l-3.693714-3.913143L128 18.285714V665.088c0 18.139429 14.902857 32.841143 33.298286 32.841143zM896 749.714286c0-12.525714-0.384-26.642286-1.097143-42.24-0.731429-15.616-1.609143-31.725714-2.706286-48.292572-1.097143-16.566857-2.084571-32.841143-3.181714-48.786285-1.060571-15.945143-2.651429-30.537143-4.809143-43.648h-27.830857l-55.588571 134.180571h-147.181715v-608.658286c18.340571-3.163429 49.737143-6.253714 65.572572-9.417143 15.908571-3.108571 31.213714-7.460571 46.043428-13.129142v-27.136H411.995429v27.190857a596.077714 596.077714 0 0 0 47.104 13.129143c15.872 3.785143 47.177143 6.857143 65.536 9.417142V700.946286h-148.150858l-56.082285-134.180572h-26.441143a551.204571 551.204571 0 0 0-5.302857 42.715429 2045.915429 2045.915429 0 0 0-6.308572 97.499428c-0.731429 15.890286-1.097143 30.208-1.097143 42.733715H896z"  horiz-adv-x="1024" />
      
      <glyph glyph-name="wenzibeijingse" unicode="&#58914;" d="M0 896h1024v-1024H0zM762.304-14.208h119.488L585.984 793.6H489.216L193.408-14.208H312.96l62.592 176.32h324.224l62.592-176.32zM415.36 270.208l125.12 364.16 125.184-364.16H415.296z"  horiz-adv-x="1024" />
      
      <glyph glyph-name="wenzijianju" unicode="&#58951;" d="M844.8 349.915429c0-20.333714-20.406857-33.938286-40.740571-33.938286H213.138286c-20.333714 0-40.740571 13.604571-40.740572 33.938286 0 20.406857 20.406857 34.011429 40.740572 34.011428h590.921143c20.333714 0 40.740571-13.604571 40.740571-34.011428z m-40.740571-237.714286H213.138286c-20.333714 0-40.740571-13.531429-40.740572-33.938286s20.406857-33.938286 40.740572-33.938286h590.921143c20.333714 0 40.740571 13.531429 40.740571 33.938286s-20.406857 33.938286-40.740571 33.938286zM70.509714 791.405714c-20.333714 0-33.938286-13.604571-33.938285-33.938285V10.24c0-20.333714 13.604571-33.938286 33.938285-33.938286 20.406857 0 34.011429 13.604571 34.011429 33.938286V757.467429c0 20.333714-13.604571 33.938286-34.011429 33.938285z m882.980572 0c-20.406857 0-34.011429-13.604571-34.011429-33.938285V10.24c0-20.333714 13.604571-33.938286 34.011429-33.938286 20.333714 0 33.938286 13.604571 33.938285 33.938286V757.467429c0 20.333714-13.604571 33.938286-33.938285 33.938285z m-207.140572-78.116571a32.841143 32.841143 0 0 1-47.542857 0 32.841143 32.841143 0 0 1 0-47.542857l44.105143-44.105143H291.254857l44.178286 44.105143a32.841143 32.841143 0 0 1 0 47.542857 32.841143 32.841143 0 0 1-47.542857 0l-95.085715-95.085714a36.717714 36.717714 0 0 1-10.24-23.771429c0-10.24 3.437714-16.969143 10.24-23.771429l95.085715-95.085714a32.841143 32.841143 0 0 1 47.542857 0 32.841143 32.841143 0 0 1 0 47.542857l-30.573714 30.573715h427.885714l-33.938286-33.938286a32.841143 32.841143 0 0 1 0-47.542857 32.841143 32.841143 0 0 1 47.542857 0l95.085715 95.085714c6.729143 10.166857 10.166857 16.969143 10.166857 27.136a30.866286 30.866286 0 0 1-10.24 23.771429l-95.085715 95.085714z"  horiz-adv-x="1024" />
      
      <glyph glyph-name="shuipingjuzhongduiqi" unicode="&#58916;" d="M490.285714 896h42.285715v-1023.748571h-42.285715zM139.428571 299.428571h745.142858v-256.788571H139.428571zM276.571429 692.571429h470.857142v-256.788572H276.571429z"  horiz-adv-x="1024" />
      
      <glyph glyph-name="zuoduiqi" unicode="&#59162;" d="M96 896a32 32 0 0 0 32-32v-960a32 32 0 0 0-64 0V864A32 32 0 0 0 96 896z m128-192h448a32 32 0 0 0 32-32v-192a32 32 0 0 0-32-32h-448a32 32 0 0 0-32 32v192a32 32 0 0 0 32 32z m0-384h704a32 32 0 0 0 32-32v-192a32 32 0 0 0-32-32h-704a32 32 0 0 0-32 32v192a32 32 0 0 0 32 32z"  horiz-adv-x="1024" />
      
      <glyph glyph-name="youduiqi" unicode="&#59163;" d="M928 896a32 32 0 0 0 32-32v-960a32 32 0 0 0-64 0V864a32 32 0 0 0 32 32z m-576-192h448a32 32 0 0 0 32-32v-192a32 32 0 0 0-32-32h-448a32 32 0 0 0-32 32v192a32 32 0 0 0 32 32z m-256-384h704a32 32 0 0 0 32-32v-192a32 32 0 0 0-32-32H96a32 32 0 0 0-32 32v192A32 32 0 0 0 96 320z"  horiz-adv-x="1024" />
      
      <glyph glyph-name="dibuduiqi" unicode="&#59160;" d="M1170.285714-91.428571a36.571429 36.571429 0 0 1-36.571428 36.571428H36.571429a36.571429 36.571429 0 0 1 0-73.142857h1097.142857a36.571429 36.571429 0 0 1 36.571428 36.571429z m-219.428571 146.285714v512a36.571429 36.571429 0 0 1-36.571429 36.571428h-219.428571a36.571429 36.571429 0 0 1-36.571429-36.571428v-512a36.571429 36.571429 0 0 1 36.571429-36.571429h219.428571a36.571429 36.571429 0 0 1 36.571429 36.571429z m-438.857143 0V859.428571a36.571429 36.571429 0 0 1-36.571429 36.571429h-219.428571a36.571429 36.571429 0 0 1-36.571429-36.571429v-804.571428a36.571429 36.571429 0 0 1 36.571429-36.571429h219.428571a36.571429 36.571429 0 0 1 36.571429 36.571429z"  horiz-adv-x="1170" />
      
      <glyph glyph-name="dingbuduiqi" unicode="&#59161;" d="M1170.285714 859.428571a36.571429 36.571429 0 0 0-36.571428-36.571428H36.571429a36.571429 36.571429 0 0 0 0 73.142857h1097.142857a36.571429 36.571429 0 0 0 36.571428-36.571429z m-219.428571-146.285714v-512a36.571429 36.571429 0 0 0-36.571429-36.571428h-219.428571a36.571429 36.571429 0 0 0-36.571429 36.571428v512a36.571429 36.571429 0 0 0 36.571429 36.571429h219.428571a36.571429 36.571429 0 0 0 36.571429-36.571429z m-438.857143 0v-804.571428a36.571429 36.571429 0 0 0-36.571429-36.571429h-219.428571a36.571429 36.571429 0 0 0-36.571429 36.571429v804.571428a36.571429 36.571429 0 0 0 36.571429 36.571429h219.428571a36.571429 36.571429 0 0 0 36.571429-36.571429z"  horiz-adv-x="1170" />
      
      <glyph glyph-name="chuizhijuzhongduiqi" unicode="&#58905;" d="M1100.8 443.733333h-102.4V708.266667c0 25.6-17.066667 42.666667-42.666667 42.666666H708.266667c-25.6 0-42.666667-25.6-42.666667-42.666666v-264.533334h-170.666667V853.333333c0 25.6-25.6 42.666667-42.666666 42.666667h-256C170.666667 896 153.6 878.933333 153.6 853.333333v-409.6H59.733333c-34.133333 0-59.733333-25.6-59.733333-59.733333 0-34.133333 25.6-59.733333 59.733333-59.733333H153.6v-409.6c0-25.6 17.066667-42.666667 42.666667-42.666667h247.466666c25.6 0 42.666667 17.066667 42.666667 42.666667V324.266667h170.666667v-264.533334c0-25.6 17.066667-42.666667 42.666666-42.666666h247.466667c25.6 0 42.666667 17.066667 42.666667 42.666666V324.266667H1100.8c34.133333 0 59.733333 25.6 59.733333 59.733333 0 34.133333-25.6 59.733333-59.733333 59.733333z"  horiz-adv-x="1160" />
      
      <glyph glyph-name="zhongzuo" unicode="&#58887;" d="M828.893867 675.908267H418.338133C203.844267 675.908267 29.969067 502.784 29.969067 289.109333c0-213.674667 173.8752-386.798933 388.369066-386.798933h517.802667a64.580267 64.580267 0 0 1 64.7168 64.443733 64.580267 64.580267 0 0 1-64.7168 64.443734H418.338133A258.389333 258.389333 0 0 0 159.402667 289.109333a258.389333 258.389333 0 0 0 258.935466 257.911467h415.1296l-74.888533-74.615467a64.3072 64.3072 0 0 1 28.672-108.7488 64.853333 64.853333 0 0 1 62.941867 17.6128l183.022933 182.272a64.375467 64.375467 0 0 1 0 91.272534L850.193067 837.085867a64.9216 64.9216 0 0 1-91.5456 0 64.3072 64.3072 0 0 1 0-91.136l70.314666-70.0416z"  horiz-adv-x="1092" />
      
      <glyph glyph-name="chexiao" unicode="&#58888;" d="M223.300267 674.679467h410.555733c214.493867 0 388.437333-173.192533 388.437333-386.798934 0-213.674667-173.943467-386.8672-388.437333-386.8672H116.053333a64.580267 64.580267 0 0 0-64.7168 64.512c0 35.566933 29.013333 64.443733 64.7168 64.443734h517.802667a258.389333 258.389333 0 0 1 258.935467 257.911466 258.389333 258.389333 0 0 1-258.935467 257.8432h-415.061333L293.546667 471.176533a64.3072 64.3072 0 0 0-28.672-108.7488 64.853333 64.853333 0 0 0-62.941867 17.6128L19.114667 562.312533a64.375467 64.375467 0 0 0 0 91.204267L201.9328 835.925333a64.9216 64.9216 0 0 0 91.613867 0c25.258667-25.122133 25.258667-65.9456 0-91.136l-70.314667-70.0416z"  horiz-adv-x="1024" />
      
      <glyph glyph-name="zitijiacu" unicode="&#60547;" d="M768.96 320.928c-22.144 34.112-54.816 56.8-97.984 68.032v2.176c22.88 10.88 42.112 23.04 57.696 36.48 15.616 12.704 27.584 26.144 35.936 40.288 16.32 29.76 24.128 60.96 23.392 93.632 0 63.872-19.776 115.232-59.328 154.08-39.2 38.464-97.824 58.048-175.84 58.784H215.232v-793.728H579.52c62.432 0 114.496 20.864 156.256 62.624 42.112 39.936 63.52 94.176 64.224 162.752 0 41.376-10.336 79.68-31.04 114.88zM344.32 667.168h194.912c43.904-0.736 76.224-11.424 96.896-32.128 21.056-22.144 31.584-49.184 31.584-81.12s-10.528-58.432-31.584-79.488c-20.672-22.848-52.992-34.304-96.896-34.304H344.32V667.168z m304.352-536.256c-20.672-23.584-53.344-35.744-97.984-36.48H344.32v238.432h206.336c44.64-0.704 77.312-12.512 97.984-35.392 20.672-23.232 31.04-51.168 31.04-83.84 0-31.904-10.336-59.488-31.008-82.72z"  horiz-adv-x="1024" />
      
      <glyph glyph-name="zitixiahuaxian" unicode="&#60549;" d="M512 84.704a312 312 0 0 1 312 312V806.4h-112v-409.696a200 200 0 1 0-400 0V806.4h-112v-409.696a312 312 0 0 1 312-312zM864 10.208H160a32 32 0 0 1 0-64h704a32 32 0 0 1 0 64z"  horiz-adv-x="1024" />
      
      <glyph glyph-name="qingxie" unicode="&#58929;" d="M768 800H480a32 32 0 0 1 0-64h96.32l-230.336-704H256a32 32 0 1 1 0-64h288a32 32 0 1 1 0 64H450.24l230.592 704H768a32 32 0 0 1 0 64z"  horiz-adv-x="1024" />
      
      <glyph glyph-name="45" unicode="&#59045;" d="M688.196267 539.727644 215.540622 720.930133c-18.386489 7.054222-36.443022-11.002311-29.3888-29.3888l181.202489-472.655644c5.893689-15.382756 25.691022-19.592533 37.341867-7.941689l62.828089 62.828089c8.886044 8.886044 23.290311 8.886044 32.176356 0l215.847822-215.847822c8.886044-8.886044 23.290311-8.886044 32.176356 0l102.172444 102.172444c8.886044 8.886044 8.886044 23.290311 0 32.176356L634.038044 408.098133c-8.886044 8.886044-8.886044 23.290311 0 32.176356l62.111289 62.111289C707.800178 514.036622 703.5904 533.822578 688.196267 539.727644z"  horiz-adv-x="1024" />
      
      <glyph glyph-name="wenben" unicode="&#58953;" d="M692.2597343921661 13.21142578125H331.711297750473v30.689996480941772a563.3140236139297 563.3140236139297 0 0 0 48.088091611862176 14.83154296875c16.200274229049683 4.278552532196046 33.656305074691765 7.757592201232912 52.39561200141907 10.638445615768433v630.340576171875h-136.73552870750427l-57.244107127189636-151.53810381889343H211.2339789867401c-2.1675199270248413 14.118209481239319-3.9642512798309326 30.233752727508545-5.419161915779114 48.23148250579833-1.4541864395141602 17.939794063568115-2.6809751987457275 36.30831241607666-3.7933409214019784 55.10410666465761-1.1123657226562498 18.59736442565918-1.9683659076690674 37.078857421875-2.6527315378189087 55.019375681877136C198.6264432668686 724.469366312027 198.2563788890838 740.6413968801498 198.2563788890838 754.78857421875h627.4886906147003c0-14.147177338600159-0.3997564315795899-30.090361833572388-1.1123657226562498-47.689059376716614-0.7415771484374999-17.655909061431885-1.6547888517379765-35.852792859077454-2.766430377960205-54.56313192844391s-2.139276266098023-37.078857421875-3.251641988754273-55.10410666465761c-1.0841220617294314-17.998453974723816-2.7099430561065674-34.48406159877777-4.9064308404922485-49.28736090660096h-28.408053517341607l-56.75889551639557 151.53810381889343H592.8891206979752V69.31492352485657c18.71033906936645-3.5659432411193848 36.22285723686218-7.07395076751709 52.366644144058235-10.638445615768433 16.229242086410522-3.508731722831726 31.85957372188568-8.415162563323973 47.00469374656678-14.83154296875v-30.633509159088135z"  horiz-adv-x="1024" />
      
      <glyph glyph-name="huabi" unicode="&#59204;" d="M358.681 309.61400000000003s-90.968-49.4-94.488-126.827c-3.519-77.428-77.427-133.74-102.063-140.778s360.157-22.971 332.002 142.444l-135.45 125.16zM527.78 257.054c14.016-13.601 17.565-32.675 7.929-42.606-9.635-9.93-28.81-6.954-42.823 6.647l-92.767 88.518c-14.015 13.6-17.565 32.675-7.929 42.605 9.636 9.93 28.81 6.955 42.824-6.646l92.766-88.518zM849.514 722.137c-25.144 17.055-47.741 1.763-57.477-3.805-29.097-19.485-237.243-221.77-327.69-315.194-11.105-14.8-18.59-26.294 34.663-79.546 44.95-44.95 65.896-42.012 88.66-22.603 37.906 37.906 199.299 262.926 258.92 348.713 9.792 14.092 29.851 54.17 2.924 72.435z"  horiz-adv-x="1024" />
      
      <glyph glyph-name="siweidaotu-zhexian" unicode="&#59580;" d="M896 725.333333a42.666667 42.666667 0 0 0 0-85.333333h-341.333333v-597.333333H128a42.666667 42.666667 0 0 0 0 85.333333h341.333333V725.333333h426.666667z"  horiz-adv-x="1024" />
      
      <glyph glyph-name="qingli" unicode="&#59083;" d="M772.096 527.36H654.336V742.4c0 78.848-63.488 142.336-142.336 142.336S369.664 821.248 369.664 742.4v-215.04H251.904c-94.208 0-171.008-76.8-171.008-171.008v-59.392c0-53.248 44.032-97.28 97.28-97.28h4.096l-51.2-121.856c-18.432-43.008-13.312-92.16 12.288-132.096 25.6-38.912 69.632-62.464 116.736-62.464h501.76c48.128 0 92.16 23.552 117.76 64.512 25.6 39.936 29.696 90.112 9.216 133.12L833.536 199.68h12.288c53.248 0 97.28 44.032 97.28 97.28v59.392c0 95.232-76.8 171.008-171.008 171.008zM451.584 742.4c0 32.768 26.624 60.416 60.416 60.416 32.768 0 60.416-26.624 60.416-60.416v-215.04H451.584V742.4zM808.96-8.192c-11.264-16.384-28.672-26.624-49.152-26.624h-501.76c-19.456 0-36.864 9.216-48.128 25.6s-12.288 35.84-5.12 54.272l63.488 150.528h12.288v-124.928c0-22.528 18.432-40.96 40.96-40.96s40.96 18.432 40.96 40.96v122.88 2.048h40.96v-124.928c0-22.528 18.432-40.96 40.96-40.96s40.96 18.432 40.96 40.96v122.88 3.072h40.96v-125.952c0-22.528 18.432-40.96 40.96-40.96s40.96 18.432 40.96 40.96v122.88 4.096h40.96v-126.976c0-22.528 18.432-40.96 40.96-40.96s40.96 18.432 40.96 40.96v122.88 5.12h14.336L815.104 46.08c6.144-16.384 5.12-36.864-6.144-54.272z m52.224 306.176c0-8.192-7.168-15.36-15.36-15.36H178.176c-8.192 0-15.36 7.168-15.36 15.36v59.392c0 49.152 39.936 89.088 89.088 89.088h520.192c49.152 0 89.088-39.936 89.088-89.088v-59.392z"  horiz-adv-x="1024" />
      
      <glyph glyph-name="zhixianxianduan" unicode="&#58937;" d="M995.555556 384H28.444444C11.377778 384 0 395.377778 0 412.444444S11.377778 440.888889 28.444444 440.888889h967.111112c17.066667 0 28.444444-11.377778 28.444444-28.444445s-11.377778-28.444444-28.444444-28.444444z"  horiz-adv-x="1024" />
      
      <glyph glyph-name="juxing" unicode="&#59280;" d="M898.8 696.4v-624.8H125.2V696.4h773.6m59.5 59.5H65.7v-743.8h892.5V755.9h0.1z"  horiz-adv-x="1024" />
      
      <glyph glyph-name="duobianxing" unicode="&#58907;" d="M680.71-19.22H343.29c-39.53 0-76.37 21.27-96.12 55.52L78.46 328.51c-19.75 34.22-19.75 76.77 0 110.99l168.71 292.2c19.75 34.24 56.6 55.52 96.12 55.52h337.42c39.53 0 76.37-21.27 96.12-55.52l168.71-292.2c19.75-34.22 19.75-76.77 0-110.99L776.83 36.3c-19.75-34.24-56.59-55.52-96.12-55.52zM343.29 720.31c-15.7 0-30.35-8.43-38.21-22.04l-168.71-292.2c-7.84-13.61-7.84-30.52 0-44.13l168.71-292.2c7.86-13.61 22.51-22.04 38.21-22.04h337.42c15.7 0 30.35 8.43 38.21 22.04l168.71 292.2c7.84 13.61 7.84 30.52 0 44.13l-168.71 292.2c-7.86 13.61-22.51 22.04-38.21 22.04H343.29z"  horiz-adv-x="1024" />
      
      <glyph glyph-name="yuanxing" unicode="&#58919;" d="M511.99-64.22C264.84-64.22 63.77 136.85 63.77 384S264.84 832.22 511.99 832.22 960.23 631.15 960.23 384 759.14-64.22 511.99-64.22z m0 823.81C304.88 759.59 136.4 591.11 136.4 384s168.48-375.59 375.59-375.59c207.13 0 375.61 168.48 375.61 375.59S719.12 759.59 511.99 759.59z"  horiz-adv-x="1024" />
      
      <glyph glyph-name="zhexiantu" unicode="&#58928;" d="M491.85 61.35L272.9 219.13 121.57 96.77l-61.18 77.28 206.07 167.43 231.83-164.21L904 418.76l51.51-83.72zM491.85 351.14L272.9 508.91 121.57 386.56l-61.18 77.28 206.07 167.43 231.83-164.21L904 708.55l51.51-83.72z"  horiz-adv-x="1024" />
      
      <glyph glyph-name="tx-tuoyuanxing" unicode="&#58959;" d="M512 94c-115.774 0-225.359 27.495-308.567 77.42-42.745 25.646-76.681 56.046-100.865 90.353C75.649 299.958 62 341.081 62 384c0 42.918 13.649 84.042 40.567 122.228 24.185 34.307 58.121 64.706 100.865 90.353C286.641 646.505 396.226 674 512 674s225.359-27.495 308.567-77.42c42.745-25.646 76.681-56.046 100.865-90.353C948.352 468.042 962 426.918 962 384c0-42.919-13.648-84.042-40.567-122.228-24.185-34.307-58.12-64.706-100.865-90.353C737.359 121.495 627.774 94 512 94z m0 480c-97.913 0-189.226-22.434-257.118-63.169C220.194 490.018 162 445.864 162 384c0-61.865 58.194-106.018 92.882-126.831C322.774 216.434 414.087 194 512 194s189.227 22.434 257.118 63.169C803.807 277.982 862 322.135 862 384c0 61.865-58.193 106.018-92.882 126.831C701.227 551.566 609.913 574 512 574z"  horiz-adv-x="1024" />
      
      <glyph glyph-name="xingzhuang-sanjiaoxing" unicode="&#58962;" d="M928.64 0a2.144 2.144 0 0 0-0.64 0H96a32.032 32.032 0 0 0-27.552 48.288l416 704c11.488 19.456 43.552 19.456 55.104 0l413.152-699.2A31.936 31.936 0 0 0 928.64 0z m-776.576 64h719.84L512 673.088 152.064 64z"  horiz-adv-x="1024" />
      
      <glyph glyph-name="guanbiquanping" unicode="&#58882;" d="M298.666667 896c-25.6 0-42.666667-17.066667-42.666667-42.666667v-192c0-12.8-8.533333-21.333333-21.333333-21.333333H42.666667c-25.6 0-42.666667-17.066667-42.666667-42.666667s17.066667-42.666667 42.666667-42.666666h192C294.4 554.666667 341.333333 601.6 341.333333 661.333333V853.333333c0 25.6-17.066667 42.666667-42.666666 42.666667zM789.333333 554.666667H981.333333c25.6 0 42.666667 17.066667 42.666667 42.666666s-17.066667 42.666667-42.666667 42.666667h-192c-12.8 0-21.333333 8.533333-21.333333 21.333333V853.333333c0 25.6-17.066667 42.666667-42.666667 42.666667s-42.666667-17.066667-42.666666-42.666667v-192C682.666667 601.6 729.6 554.666667 789.333333 554.666667zM234.666667 213.333333H42.666667c-25.6 0-42.666667-17.066667-42.666667-42.666666s17.066667-42.666667 42.666667-42.666667h192c12.8 0 21.333333-8.533333 21.333333-21.333333V-85.333333c0-25.6 17.066667-42.666667 42.666667-42.666667s42.666667 17.066667 42.666666 42.666667v192C341.333333 166.4 294.4 213.333333 234.666667 213.333333zM981.333333 213.333333h-192c-59.733333 0-106.666667-46.933333-106.666666-106.666666V-85.333333c0-25.6 17.066667-42.666667 42.666666-42.666667s42.666667 17.066667 42.666667 42.666667v192c0 12.8 8.533333 21.333333 21.333333 21.333333H981.333333c25.6 0 42.666667 17.066667 42.666667 42.666667s-17.066667 42.666667-42.666667 42.666666z"  horiz-adv-x="1024" />
      
      <glyph glyph-name="xian-buguize-buju" unicode="&#59078;" d="M720 448h224a16 16 0 0 1 16 16v352a16 16 0 0 1-16 16h-224a16 16 0 0 1-16-16V672H464a16 16 0 0 1-16-16V416H320V560A16 16 0 0 1 304 576h-224a16 16 0 0 1-16-16v-352c0-8.768 7.232-16 16-16h224a16 16 0 0 1 16 16V352h128v-240c0-8.768 7.168-16 16-16H704v-144c0-8.768 7.232-16 16-16h224a16 16 0 0 1 16 16v352a16 16 0 0 1-16 16h-224a16 16 0 0 1-16-16v-144H512v448h192v-144c0-8.832 7.232-16 16-16zM256 256H128V512h128v-256z m512 0h128v-256h-128v256z m0 512h128v-256h-128V768z"  horiz-adv-x="1024" />
      
      <glyph glyph-name="a-cengjijiagoubuju" unicode="&#58926;" d="M928 194.9952a16.0512 16.0512 0 0 0-16 16V288c0 52.992-43.008 96-96 96h-256a16.0512 16.0512 0 0 0-16 16v96c0 8.8064 7.1936 16 16 16h48c52.992 0 96 43.008 96 96v192C704 852.992 660.992 896 608 896h-192c-52.992 0-96-43.008-96-96v-192c0-52.992 43.008-96 96-96h48c8.8064 0 16-7.1936 16-16v-96a16.0512 16.0512 0 0 0-16-16h-256c-52.992 0-96-43.008-96-96v-77.0048a16.0512 16.0512 0 0 0-16-16c-52.992 0-96-43.008-96-96v-130.9952C0-84.992 43.008-128 96-128H192c52.992 0 96 43.008 96 96v130.9952c0 52.992-43.008 96-96 96a16.0512 16.0512 0 0 0-16 16V288c0 17.6896 14.3104 32 32 32h256c8.8064 0 16-7.1936 16-16v-94.0032a14.976 14.976 0 0 0-15.0016-15.0016h-0.9984c-52.992 0-96-43.008-96-96v-130.9952c0-52.992 43.008-96 96-96h96c52.992 0 96 43.008 96 96v130.9952c0 52.992-43.008 96-96 96h-1.024a14.976 14.976 0 0 0-14.976 15.0016v94.0032c0 8.8064 7.1936 16 16 16h256c17.6896 0 32-14.3104 32-32v-77.0048a16.0512 16.0512 0 0 0-16-16c-52.992 0-96-43.008-96-96v-130.9952c0-52.992 43.008-96 96-96h96c52.992 0 96 43.008 96 96v130.9952c0 52.992-43.008 96-96 96z m-736-64c17.6128 0 32-14.3872 32-32v-130.9952c0-17.6128-14.4128-32-32-32H96c-17.6128 0-32 14.4128-32 32v130.9952c0 17.6128 14.4128 32 32 32H192z m368 0c17.6128 0 32-14.3872 32-32v-130.9952c0-17.6128-14.4128-32-32-32h-96c-17.6128 0-32 14.4128-32 32v130.9952c0 17.6128 14.4128 32 32 32h96zM416 576c-17.6128 0-32 14.4128-32 32v192c0 17.6128 14.4128 32 32 32h192c17.6128 0 32-14.4128 32-32v-192c0-17.6128-14.4128-32-32-32h-192zM960-32c0-17.6128-14.4128-32-32-32H832c-17.6128 0-32 14.4128-32 32v130.9952c0 17.6128 14.4128 32 32 32h96c17.6128 0 32-14.3872 32-32v-130.9952z"  horiz-adv-x="1024" />
      
      <glyph glyph-name="quanping" unicode="&#58946;" d="M1014.331575-117.87659C1009.09925-124.075757 1001.421383-128 991.98045-128L703.975118-128C686.287587-128 671.955568-113.667981 671.955568-95.98045 671.955568-78.292919 686.287587-64.017773 703.975118-64.017773L914.348681-64.984615 569.185893 280.178173 614.4 325.449153 959.9609-20.111747 959.9609 191.968009C959.9609 209.65554 974.292919 223.987559 991.98045 223.987559 1009.611108 223.987559 1023.943127 209.65554 1023.943127 191.968009L1024-95.07048C1024-104.056429 1020.246376-112.075535 1014.331575-117.87659ZM991.98045 543.955568C974.292919 543.955568 959.9609 558.287587 959.9609 575.975118L960.984615 786.348681 615.764954 441.185893 570.550847 486.456873 916.054874 831.9609 703.975118 831.9609C686.287587 831.9609 671.955568 846.292919 671.955568 863.98045 671.955568 881.667981 686.287587 896 703.975118 896L991.07048 896C999.999556 896 1008.075535 892.246376 1013.87659 886.331575 1020.018884 881.09925 1023.943127 873.478256 1023.943127 863.98045L1023.943127 575.975118C1023.943127 558.287587 1009.611108 543.955568 991.98045 543.955568ZM409.543127 442.550847 63.982227 788.111747 63.982227 575.975118C63.982227 558.287587 49.650208 543.955568 32.01955 543.955568 14.332019 543.955568 0 558.287587 0 575.975118L0 863.07048C0 871.999556 3.696751 880.075535 9.611552 885.87659 14.843877 892.075757 22.521744 896 32.01955 896L319.968009 896C337.65554 896 351.987559 881.667981 351.987559 863.98045 351.987559 846.292919 337.65554 831.9609 319.968009 831.9609L109.594446 832.984615 454.814107 487.764954 409.543127 442.550847ZM32.01955 223.987559C49.650208 223.987559 63.982227 209.65554 63.982227 191.968009L63.015385-18.405554 408.178173 326.814107 453.449153 281.543127 107.888253-64.017773 319.968009-64.017773C337.65554-64.017773 351.987559-78.349792 351.987559-95.98045 351.987559-113.667981 337.65554-128 319.968009-128L32.92952-128C23.943571-128 15.924465-124.303249 10.12341-118.388448 3.924243-113.09925 0-105.478256 0-95.98045L0 191.968009C0 209.65554 14.332019 223.987559 32.01955 223.987559Z"  horiz-adv-x="1025" />
      
      <glyph glyph-name="xiazai" unicode="&#58880;" d="M828.975746 1.874953 190.189132 1.874953c-70.550823 0-127.753639 57.18542-127.753639 127.752616L62.435493 289.325757c0 17.634636 14.308891 31.933293 31.93227 31.933293l63.889099 0c17.634636 0 31.93227-14.298658 31.93227-31.933293l0-95.821369c0-35.282574 28.596292-63.877843 63.87682-63.877843L765.098927 129.626545c35.281551 0 63.87682 28.595268 63.87682 63.877843l0 95.821369c0 17.634636 14.298658 31.933293 31.943526 31.933293l63.877843 0c17.634636 0 31.933293-14.298658 31.933293-31.933293l0-159.699212C956.729385 59.060373 899.538849 1.874953 828.975746 1.874953L828.975746 1.874953zM249.938957 628.490364c12.921287 12.919241 33.884738 12.919241 46.807049 0l148.97087-148.971893L445.716876 801.10677c0 17.634636 14.300704 31.94762 31.933293 31.94762l63.875796 0c17.637706 0 31.945573-14.312984 31.945573-31.94762l0-321.588299 148.97087 148.971893c12.921287 12.919241 33.875528 12.919241 46.796816 0l46.814212-46.818305c12.921287-12.922311 12.921287-33.874505 0-46.807049L552.261471 271.069975c-1.140986-1.137916-21.664416-13.68365-42.315758-13.69286-20.87647-0.010233-41.878806 12.541641-43.020816 13.69286L203.121676 534.86501c-12.922311 12.933567-12.922311 33.884738 0 46.807049L249.938957 628.490364 249.938957 628.490364z"  horiz-adv-x="1024" />
      
      <glyph glyph-name="liulanliang" unicode="&#58886;" d="M513.1 709c-324 0-448.7-320-448.7-320s127-327.3 448.7-327.3S961.8 389 961.8 389 837.1 709 513.1 709z m0-522.5c-110.5 0-200.1 89.6-200.1 200.1s89.6 200.1 200.1 200.1 200.1-89.6 200.1-200.1-89.6-200.1-200.1-200.1zM400.7 387.6c0-40.4 21.5-77.6 56.5-97.8 34.9-20.2 78-20.2 113 0 34.9 20.2 56.5 57.5 56.5 97.8 0 62.4-50.6 113-113 113s-113-50.6-113-113z"  horiz-adv-x="1024" />
      
      <glyph glyph-name="flow" unicode="&#59001;" d="M251.627368 896H10.035292v-241.592076h241.592076z m-46.105358-195.486718H56.14065V849.894642h149.38136zM815.956949 407.744259h-89.444394v-46.105358h89.444394a218.539397 218.539397 0 0 1 0 436.61774H335.539119v-46.105358h480.41783a172.434039 172.434039 0 0 0 0-344.407024zM56.14065 188.743809a172.434039 172.434039 0 0 0 172.434039 171.972985h88.983341v46.105358H228.574689a218.539397 218.539397 0 1 1 0-436.61774h479.956776v46.105358H228.574689A172.895092 172.895092 0 0 0 56.14065 188.743809zM406.541371 499.493922h230.526789v-230.52679h-230.526789zM793.826377-128h241.592076V112.208915H793.826377zM839.931735 66.103557h149.38136v-149.38136H839.931735z"  horiz-adv-x="1035" />
      
      <glyph glyph-name="dianzan" unicode="&#58918;" d="M554.805566-127.999794a54.658982 54.658982 0 0 0-38.903556 16.166948L101.881167 302.232089A347.839237 347.839237 0 0 0 554.805566 827.701993a347.839237 347.839237 0 0 0 452.968491-525.484602l-0.191064-0.191064L593.767911-111.832846a54.673679 54.673679 0 0 0-38.962345-16.166948zM347.824539 831.332208a283.156747 283.156747 0 0 1-200.220303-483.377051l407.20133-407.260119L962.080383 347.911066l0.176367 0.176366A283.156747 283.156747 0 0 1 576.116543 761.858423a32.333896 32.333896 0 0 0-42.504376 0A282.495372 282.495372 0 0 1 347.824539 831.332208z m637.139424-506.275328z"  horiz-adv-x="1109" />
      
      <glyph glyph-name="guanyu" unicode="&#58893;" d="M512-34.133333c230.929067 0 418.133333 187.204267 418.133333 418.133333S742.929067 802.133333 512 802.133333 93.866667 614.929067 93.866667 384 281.070933-34.133333 512-34.133333z m0 51.2C309.3504 17.066667 145.066667 181.3504 145.066667 384S309.3504 750.933333 512 750.933333 878.933333 586.6496 878.933333 384 714.6496 17.066667 512 17.066667zM477.866667 469.333333l68.266666 0 0-324.266666-68.266666 0 0 324.266666ZM512 563.2m-42.666667 0a42.666667 42.666667 0 1 1 85.333334 0 42.666667 42.666667 0 1 1-85.333334 0Z"  horiz-adv-x="1024" />
      
      <glyph glyph-name="home" unicode="&#58938;" d="M853.796053 552.3199999999999L512.46272 800.597333 171.129387 552.3413330000001V0a42.666667 42.666667 0 0 1 42.666666-42.666667h128v170.666667a128 128 0 0 0 128 128h85.333334a128 128 0 0 0 128-128v-256h-42.666667a42.666667 42.666667 0 0 0-42.666667 42.666667V128a42.666667 42.666667 0 0 1-42.666666 42.666667h-85.333334a42.666667 42.666667 0 0 1-42.666666-42.666667v-213.333333a42.666667 42.666667 0 0 0-42.666667-42.666667h-170.666667a128 128 0 0 0-128 128V490.282667l-17.578666-12.8a42.666667 42.666667 0 1 0-50.176 69.013333l469.333333 341.333333a42.666667 42.666667 0 0 0 50.176 0l469.333333-341.333333a42.666667 42.666667 0 1 0-50.176-68.992L939.129387 490.282667V0a128 128 0 0 0-128-128h-128v85.333333h128a42.666667 42.666667 0 0 1 42.666666 42.666667V552.3199999999999z"  horiz-adv-x="1025" />
      
      <glyph glyph-name="guanyu1" unicode="&#58884;" d="M512.002 832.16C264.88 832.16 63.84 631.12 63.84 383.998c0-247.143 201.04-448.157 448.162-448.157 247.13 0 448.157 201.026 448.157 448.157C960.16 631.12 759.133 832.16 512.002 832.16z m0-843.592c-218.047 0-395.435 177.388-395.435 395.429 0 218.047 177.388 395.435 395.435 395.435 218.042 0 395.43-177.4 395.43-395.435 0-218.041-177.388-395.43-395.43-395.43z m0 474.516c-14.553 0-26.358-11.805-26.358-26.353v-303.167c0-14.578 11.805-26.358 26.358-26.358 14.547 0 26.37 11.78 26.37 26.358V436.731c0 14.548-11.822 26.353-26.37 26.353z m-52.733 131.818c0 29.115 23.614 52.73 52.733 52.73 29.127 0 52.728-23.615 52.728-52.73 0-29.118-23.6-52.728-52.728-52.728-29.12 0-52.733 23.597-52.733 52.728z m0 0"  horiz-adv-x="1024" />
      
      <glyph glyph-name="fuwu" unicode="&#59126;" d="M471.7 38.8c-23.1 0-46 9.9-61.6 28.9l-241.2 294c-37.6 45.8-54.9 103.3-48.7 162 6.2 58.9 35.2 111.8 81.8 149l9.2 7.4c46.4 37.1 104.6 54.1 163.9 47.9 53.1-5.5 101.4-29 137.9-66.7l8.2 6.5c47.6 38 108.1 54.5 170.3 46.3 61.7-8.1 117.8-39.5 158-88.4 21-25.6 36.3-54.3 45.6-85.4 9-30.1 11.9-61.1 8.7-91.9-6.3-59.5-35-112.4-81-149.1l-56.2-45c-3.5-4.2-7.4-8.1-11.7-11.6L521.3 56.2c-14.6-11.7-32.2-17.4-49.6-17.4z m-120 640.4c-38.4 0-77.1-12.5-109.2-38.1l-9.2-7.4c-36-28.8-58.5-69.7-63.3-115.1-4.8-45.3 8.6-89.7 37.6-125.1l241.2-294c10.2-12.4 28.7-14.3 41.3-4.2l233.6 186.6c1.9 1.5 3.6 3.3 5.1 5.2l1.9 2.5 60.9 48.8c35.4 28.3 57.6 69.3 62.5 115.3 5.3 50.1-10.1 100-43.2 140.4-66 80.3-181.9 95.9-258.5 34.7l-46.1-36.9-19.5 23.8c-34.3 41.8-84.5 63.5-135.1 63.5zM254.5 417.1c-6.2 31.5-6.8 59.8-1.6 84.1 5.1 23.9 15.6 44.3 31.3 60.6 49.5 51.5 128.3 40.9 137.2 39.5l-12.4-79h0.2c-11.9 1.7-49.9 2.5-67.5-16-16-16.9-13.6-49.3-8.8-73.6l-78.4-15.6z"  horiz-adv-x="1024" />
      
      <glyph glyph-name="wode" unicode="&#58904;" d="M512 284c-46 0-90.4 14-127.6 40.8C326.4 366 292 433.2 292 504c0 121.2 98.8 220 220 220s220-98.8 220-220-98.8-220-220-220z m-104.4 73.2c30.4-22 66.8-33.2 104.4-33.2 99.2 0 180 80.8 180 180s-80.8 180-180 180-180-80.8-180-180c0-58 28.4-112.8 75.6-146.8zM864 32h-40c0 128.8-80.8 246-201.2 291.6l14.4 37.2c135.6-51.2 226.8-183.6 226.8-328.8zM200 32H160c0 145.2 91.2 277.6 226.8 329.2l14.4-37.2C280.8 278 200 160.8 200 32zM844 32m-20 0a20 20 0 1 1 40 0 20 20 0 1 1-40 0ZM180 32m-20 0a20 20 0 1 1 40 0 20 20 0 1 1-40 0ZM484 628m-20 0a20 20 0 1 1 40 0 20 20 0 1 1-40 0ZM628 488m-20 0a20 20 0 1 1 40 0 20 20 0 1 1-40 0ZM648 488h-40c0 66-54 120-120 120V648c88.4 0 160-71.6 160-160z m-163.6 120l-1.2 40h4.4v-40h-3.2zM180 12l7.6 91.2 61.2 130.8 82.4 76.4 58 30L456 312l76-8 66.8 19.6L644 344l28-21.2 95.2-78.4 56.8-94.4 18-82.4 2-55.6z"  horiz-adv-x="1024" />
      
      <glyph glyph-name="guanyu2" unicode="&#58892;" d="M522.672 432c25.6 0 48-19.84 48-42.56v-226.88c0-22.72-22.4-42.56-48-42.56s-48 19.84-48 42.56V389.44c0 22.72 22.4 42.56 48 42.56z m0 176a64 64 0 1 0 0-128 64 64 0 0 0 0 128zM522.672 832c247.888 0 448-200.112 448-448s-200.112-448-448-448-448 200.112-448 448 200.112 448 448 448z m0-88a359.264 359.264 0 0 1-360-360 359.264 359.264 0 0 1 360-360 359.264 359.264 0 0 1 360 360 359.264 359.264 0 0 1-360 360z"  horiz-adv-x="1040" />
      
    </font>
</defs>
</svg>
